<?xml version="1.0" encoding="UTF-8"?>
<svg version="1.1" xmlns="http://www.w3.org/2000/svg" width="100" height="100">
<path d="M0 0 C1.66764056 0.32842634 3.33401393 0.66328155 5 1 C7.76667814 1.26116762 10.53788946 1.41124777 13.3125 1.5625 C14.05306641 1.60568359 14.79363281 1.64886719 15.55664062 1.69335938 C17.37091464 1.79870432 19.1854355 1.89978316 21 2 C20.7215625 3.546875 20.7215625 3.546875 20.4375 5.125 C19.77941312 9.36629992 19.77941312 9.36629992 21 15 C15.72 15 10.44 15 5 15 C5 25.23 5 35.46 5 46 C7.31 46 9.62 46 12 46 C12 45.01 12 44.02 12 43 C10.68 42.67 9.36 42.34 8 42 C8 40.68 8 39.36 8 38 C9.6396875 37.8453125 9.6396875 37.8453125 11.3125 37.6875 C15.02351413 36.99561601 15.72623352 36.72851977 18 34 C21.72851342 32.75716219 25.12746761 32.4719274 29 33 C33.39394566 35.23842515 36.03785264 37.45607979 38 42 C38.0825 43.27875 38.165 44.5575 38.25 45.875 C38.65534315 50.4631395 40.90424602 52.34740876 44.20703125 55.34375 C46.78189713 57.72227534 48.37413071 59.88375054 50 63 C49.75 65.875 49.75 65.875 49 68 C48.01 68 47.02 68 46 68 C44.31640625 66.13671875 44.31640625 66.13671875 42.5625 63.6875 C40.29036179 60.53090531 38.22722657 58.19167694 35 56 C36.29012666 58.82482708 37.67713134 60.8825812 39.8125 63.125 C48.2750473 72.76692431 50.36873299 83.52453378 50 96 C46.97733297 95.40348694 43.98274142 94.77330333 41 94 C41 94.66 41 95.32 41 96 C40.06607422 95.76990234 40.06607422 95.76990234 39.11328125 95.53515625 C34.81725228 94.79669205 30.53758048 94.63537838 26.1875 94.4375 C25.30384766 94.39431641 24.42019531 94.35113281 23.50976562 94.30664062 C21.34000377 94.20108464 19.1700209 94.10008929 17 94 C17 94.66 17 95.32 17 96 C15.35 96 13.7 96 12 96 C12 95.34 12 94.68 12 94 C-1.53 94 -15.06 94 -29 94 C-29 94.66 -29 95.32 -29 96 C-29.680625 95.835 -30.36125 95.67 -31.0625 95.5 C-36.23063564 94.62031734 -40.90621282 94.90099797 -46 96 C-46.93096292 81.41491425 -42.66034841 71.08763031 -33.34375 60.03515625 C-27.01704505 53.21604266 -18.23094463 47.71388874 -9 46 C-7.61700022 45.96968925 -6.2333934 45.96216824 -4.85009766 45.97216797 C-3.57956543 45.98135254 -2.3090332 45.99053711 -1 46 C-1.00222061 45.43845718 -1.00444122 44.87691437 -1.00672913 44.2983551 C-1.02878306 38.47519565 -1.04390705 32.65204799 -1.05493164 26.82885742 C-1.05997308 24.65307127 -1.06680607 22.47728853 -1.07543945 20.30151367 C-1.08751338 17.18146933 -1.09323005 14.06146962 -1.09765625 10.94140625 C-1.10281754 9.96224747 -1.10797882 8.98308868 -1.11329651 7.97425842 C-1.11337204 7.07340012 -1.11344757 6.17254181 -1.11352539 5.24438477 C-1.115746 4.44718521 -1.11796661 3.64998566 -1.12025452 2.82862854 C-1 1 -1 1 0 0 Z " fill="#404445" transform="translate(48,2)"/>
<path d="M0 0 C-1 3 -1 3 -3.9375 4.5 C-4.948125 4.995 -5.95875 5.49 -7 6 C-9.36011496 9.54017245 -9.34519019 11.71335853 -9.55859375 15.84375 C-10.10755699 18.52541115 -10.80493305 19.38799771 -13 21 C-15.19140625 21.66015625 -15.19140625 21.66015625 -17.5625 22.0625 C-21.19635678 22.64602448 -21.19635678 22.64602448 -24 25 C-24.60823511 30.08664286 -24.60823511 30.08664286 -22.94921875 34.69140625 C-20.02982244 36.65132161 -16.91661471 36.71365515 -13.5 37 C-6.40540541 37.59459459 -6.40540541 37.59459459 -3 41 C-16.53 41 -30.06 41 -44 41 C-44 35 -44 35 -42.8125 32.75 C-40.69192914 30.70255227 -38.76849019 29.94711506 -36 29 C-34.61091361 27.82889816 -34.61091361 27.82889816 -34.75 24.5625 C-34.87375 22.7990625 -34.87375 22.7990625 -35 21 C-37.92513278 18.80419343 -37.92513278 18.80419343 -41.5625 18.125 C-45 17 -45 17 -46.21484375 14.9296875 C-46.47394531 14.29289062 -46.73304687 13.65609375 -47 13 C-35.70832817 0.25238194 -16.41507399 -9.38004228 0 0 Z " fill="#3398EC" transform="translate(63,55)"/>
<path d="M0 0 C2.3125 2.0625 2.3125 2.0625 4 4 C4.5775 3.67 5.155 3.34 5.75 3 C8 2 8 2 12 2 C13.703125 3.53125 13.703125 3.53125 15.25 5.5 C16.03117187 6.47453125 16.03117187 6.47453125 16.828125 7.46875 C17.40820312 8.22671875 17.40820312 8.22671875 18 9 C17.07767578 9.20302734 17.07767578 9.20302734 16.13671875 9.41015625 C10.54149553 10.89286808 10.54149553 10.89286808 6.9375 15.3125 C6.04227878 18.83370347 5.52082072 21.40615538 6 25 C7.41977909 27.22743787 7.41977909 27.22743787 9 29 C9 29.66 9 30.32 9 31 C11.31 31.66 13.62 32.32 16 33 C16 33.33 16 33.66 16 34 C12.93601549 34.13530844 9.87802874 34.2342407 6.8125 34.3125 C5.94818359 34.35439453 5.08386719 34.39628906 4.19335938 34.43945312 C-2.31391593 34.56411357 -2.31391593 34.56411357 -5.98828125 31.54296875 C-6.98408203 30.28419922 -6.98408203 30.28419922 -8 29 C-11.55141295 27.22429352 -15.75862878 27.21319992 -19.67773438 26.75 C-24.89811739 26.10188261 -24.89811739 26.10188261 -26 25 C-26.1875 22.5625 -26.1875 22.5625 -26 20 C-23.66140649 17.66140649 -22.80323644 17.69347485 -19.625 17.25 C-16.01114638 16.49469297 -15.16091229 16.1689579 -12.5 13.375 C-11.18797073 10.42293414 -10.79561616 8.89986774 -10.5625 5.8125 C-10 2 -10 2 -7.75 -0.0625 C-4.53273879 -1.1592936 -3.16320235 -1.21661629 0 0 Z " fill="#4DCE93" transform="translate(68,62)"/>
<path d="M0 0 C-0.33 1.65 -0.66 3.3 -1 5 C-1.83402344 5.23074219 -2.66804688 5.46148437 -3.52734375 5.69921875 C-18.80930433 10.12801145 -28.98434195 17.61221241 -39 30 C-39.99 29.67 -40.98 29.34 -42 29 C-42.51761346 25.3767058 -42.11663231 24.16275308 -39.9453125 21.1328125 C-39.02164096 20.11504935 -38.08041376 19.11302606 -37.125 18.125 C-36.62395752 17.5983374 -36.12291504 17.0716748 -35.60668945 16.52905273 C-26.04228413 6.72029578 -14.1312692 -0.59254369 0 0 Z " fill="#404040" transform="translate(44,40)"/>
<path d="M0 0 C2.5 1.5 2.5 1.5 4 4 C4.63201808 8.89814011 4.56525553 10.96694679 2.1875 15.3125 C0.5325128 17.34576999 -1.05464251 19.24917826 -3 21 C-7.38855677 19.27592413 -9.91486937 16.17026127 -12 12 C-12.56872038 4.9478673 -12.56872038 4.9478673 -10.5 1.5 C-6.96411027 -0.62153384 -4.02098277 -0.791013 0 0 Z " fill="#3398EA" transform="translate(77,40)"/>
<path d="M0 0 C0.64910154 1.58199631 1.29414694 3.16565724 1.9375 4.75 C2.29714844 5.63171875 2.65679687 6.5134375 3.02734375 7.421875 C4.8030112 12.12846342 5.09730289 15.94024966 5 21 C2.6875 21.25 2.6875 21.25 0 21 C-1.01405257 19.67732273 -2.01268258 18.34275169 -3 17 C-4.99172182 16.30899447 -6.99161804 15.64097297 -9 15 C-11.08940868 11.86588698 -11.27364412 11.02549528 -11.25 7.4375 C-11.25515625 6.65246094 -11.2603125 5.86742188 -11.265625 5.05859375 C-11 3 -11 3 -9 1 C-5.84308184 0.16923206 -3.30300113 0 0 0 Z " fill="#3396E8" transform="translate(89,75)"/>
<path d="M0 0 C0.56203125 0.29648438 1.1240625 0.59296875 1.703125 0.8984375 C4.01967305 2.00943503 6.30709092 2.83464706 8.75 3.625 C9.54921875 3.88539062 10.3484375 4.14578125 11.171875 4.4140625 C11.77515625 4.60742188 12.3784375 4.80078125 13 5 C12.68359375 6.90625 12.68359375 6.90625 12 9 C10.00854609 10.01691264 8.00812926 11.01642648 6 12 C3.5637004 15.24839947 3.45638011 19.04470572 3 23 C0.03 23 -2.94 23 -6 23 C-6.73625609 14.90118302 -3.76161888 7.09963204 0 0 Z " fill="#4DCB92" transform="translate(12,73)"/>
<path d="M0 0 C5.61 0 11.22 0 17 0 C16.67 2.31 16.34 4.62 16 7 C16.33 8.98 16.66 10.96 17 13 C11.39 13 5.78 13 0 13 C0 8.71 0 4.42 0 0 Z " fill="#F85151" transform="translate(52,4)"/>
<path d="M0 0 C2.625 0.375 2.625 0.375 5 1 C5.625 3.375 5.625 3.375 6 6 C5.34 6.66 4.68 7.32 4 8 C1.375 7.625 1.375 7.625 -1 7 C-1.625 4.625 -1.625 4.625 -2 2 C-1.34 1.34 -0.68 0.68 0 0 Z " fill="#4DCF97" transform="translate(71,44)"/>
</svg>
