<svg xmlns="http://www.w3.org/2000/svg" width="32" height="44" viewBox="0 0 32 44">
  <!-- Critter map pin: a check-in (with a small flag). An original round character standing on the spot. -->
  <ellipse cx="16" cy="41.4" rx="4.6" ry="1.4" fill="#000" fill-opacity="0.22"/>
  <path d="M16 5.6 C24.2 5.6 30 11 30 18 C30 24.4 25.2 28.6 19.6 29.4 L16 41 L12.4 29.4 C6.8 28.6 2 24.4 2 18 C2 11 7.8 5.6 16 5.6 Z" fill="#B94047" stroke="#FFFFFF" stroke-width="1.6" stroke-linejoin="round"/>
  <ellipse cx="11.6" cy="17" rx="3.1" ry="3.5" fill="#FFFFFF"/><ellipse cx="20.4" cy="17" rx="3.1" ry="3.5" fill="#FFFFFF"/><circle cx="12.1" cy="17.6" r="1.7" fill="#182A52"/><circle cx="20.9" cy="17.6" r="1.7" fill="#182A52"/><ellipse cx="8.4" cy="21.6" rx="1.9" ry="1.1" fill="#FFFFFF" fill-opacity="0.35"/><ellipse cx="23.6" cy="21.6" rx="1.9" ry="1.1" fill="#FFFFFF" fill-opacity="0.35"/><path d="M14.3 21.4 Q16 23.0 17.7 21.4" fill="none" stroke="#FFFFFF" stroke-width="1.3" stroke-linecap="round"/><path d="M22.4 10.4 L22.4 1.4" stroke="#B94047" stroke-width="3.4" stroke-linecap="round"/><path d="M22.4 10.4 L22.4 1.4" stroke="#FFFFFF" stroke-width="1.6" stroke-linecap="round"/><path d="M23.2 1.2 L30.4 1.2 L28.4 4 L30.4 6.8 L23.2 6.8 Z" fill="#FFFFFF" stroke="#B94047" stroke-width="1" stroke-linejoin="round"/>
</svg>
