<?xml version="1.0" encoding="UTF-8"?>
<svg version="1.1" xmlns="http://www.w3.org/2000/svg" width="100" height="100">
<path d="M0 0 C1.0442086 0.00303635 1.0442086 0.00303635 2.10951233 0.00613403 C2.83956985 0.00438171 3.56962738 0.00262939 4.32180786 0.00082397 C6.74650924 -0.00359443 9.17113828 -0.00065661 11.59584045 0.00271606 C13.27353428 0.00204302 14.95122802 0.00107299 16.62892151 -0.00018311 C20.14964219 -0.00166006 23.67033755 0.0004944 27.1910553 0.00515747 C31.71419541 0.01085476 36.23727619 0.00757574 40.76041412 0.00158501 C44.22611441 -0.00202067 47.69180052 -0.00088199 51.15750122 0.0017128 C52.8257447 0.00238205 54.49398945 0.00155371 56.16223145 -0.00076675 C58.48974539 -0.00329339 60.81716193 0.00054744 63.14466858 0.00613403 C63.84080765 0.0041098 64.53694672 0.00208557 65.25418091 0 C70.01282772 0.02126583 70.01282772 0.02126583 71.12709045 1.13552856 C71.22764159 3.99107437 71.26324589 6.82246879 71.25648499 9.67849731 C71.25911346 11.02229965 71.25911346 11.02229965 71.26179504 12.39324951 C71.26621492 15.36986194 71.26327509 18.34641548 71.25990295 21.32302856 C71.26057595 23.38186657 71.26154595 25.4407045 71.26280212 27.49954224 C71.26427928 31.82059483 71.26212397 36.1416268 71.25746155 40.462677 C71.25176425 46.01489402 71.25504316 51.56706271 71.26103401 57.11927795 C71.26463914 61.37247078 71.26350126 65.62565205 71.26090622 69.87884521 C71.26023682 71.92667649 71.26106583 73.9745088 71.26338577 76.02233887 C71.26591151 78.87910764 71.26207282 81.73579699 71.25648499 84.59255981 C71.25850922 85.44766144 71.26053345 86.30276306 71.26261902 87.18377686 C71.24135284 93.02126618 71.24135284 93.02126618 70.12709045 94.13552856 C67.7899472 94.23576411 65.4823472 94.27172059 63.14466858 94.2649231 C62.41461105 94.26667542 61.68455353 94.26842773 60.93237305 94.27023315 C58.50767167 94.27465156 56.08304263 94.27171373 53.65834045 94.26834106 C51.98064663 94.26901411 50.30295289 94.26998414 48.6252594 94.27124023 C45.10453872 94.27271719 41.58384336 94.27056273 38.06312561 94.26589966 C33.5399855 94.26020237 29.01690472 94.26348138 24.49376678 94.26947212 C21.0280665 94.2730778 17.56238039 94.27193912 14.09667969 94.26934433 C12.42843621 94.26867508 10.76019146 94.26950342 9.09194946 94.27182388 C6.76443552 94.27435052 4.43701898 94.27050969 2.10951233 94.2649231 C1.41337326 94.26694733 0.71723419 94.26897156 0 94.27105713 C-4.75864681 94.2497913 -4.75864681 94.2497913 -5.87290955 93.13552856 C-5.97346068 90.27998276 -6.00906498 87.44858833 -6.00230408 84.59255981 C-6.0040564 83.69669159 -6.00580872 82.80082336 -6.00761414 81.87780762 C-6.01203401 78.90119519 -6.00909419 75.92464165 -6.00572205 72.94802856 C-6.00639505 70.88919056 -6.00736504 68.83035263 -6.00862122 66.77151489 C-6.01009837 62.4504623 -6.00794306 58.12943033 -6.00328064 53.80838013 C-5.99758335 48.25616311 -6.00086225 42.70399442 -6.0068531 37.15177917 C-6.01045824 32.89858635 -6.00932035 28.64540508 -6.00672531 24.39221191 C-6.00605591 22.34438064 -6.00688492 20.29654833 -6.00920486 18.24871826 C-6.01173061 15.39194949 -6.00789191 12.53526014 -6.00230408 9.67849731 C-6.00432831 8.82339569 -6.00635254 7.96829407 -6.00843811 7.08728027 C-5.9827163 0.02673605 -5.9827163 0.02673605 0 0 Z " fill="#B84047" transform="translate(18.872909545898438,2.864471435546875)"/>
<path d="M0 0 C9.0586534 0.90586534 14.64584655 4.87807966 20.3671875 11.77734375 C24.48671188 17.38502167 24.63341659 23.26994872 24 30 C22.61304888 37.36817784 20.24241721 42.79423094 14.09765625 47.4375 C6.77622139 52.0977985 -1.34514705 52.86075358 -9.8125 51.375 C-16.47459522 49.55587454 -21.24329818 45.6089133 -25 39.875 C-28.5538824 33.21147049 -29.37236547 24.7402245 -27.27734375 17.50390625 C-25.36870517 12.79799168 -23.38479003 9.80139363 -19 7 C-15.125 9.625 -15.125 9.625 -14 13 C-11.49552484 14.21869929 -11.49552484 14.21869929 -9 15 C-4.14773953 10.32103454 -0.64577203 6.94204932 0 0 Z " fill="#2694ED" transform="translate(54,16)"/>
<path d="M0 0 C1.0442086 0.00303635 1.0442086 0.00303635 2.10951233 0.00613403 C2.83956985 0.00438171 3.56962738 0.00262939 4.32180786 0.00082397 C6.74650924 -0.00359443 9.17113828 -0.00065661 11.59584045 0.00271606 C13.27353428 0.00204302 14.95122802 0.00107299 16.62892151 -0.00018311 C20.14964219 -0.00166006 23.67033755 0.0004944 27.1910553 0.00515747 C31.71419541 0.01085476 36.23727619 0.00757574 40.76041412 0.00158501 C44.22611441 -0.00202067 47.69180052 -0.00088199 51.15750122 0.0017128 C52.8257447 0.00238205 54.49398945 0.00155371 56.16223145 -0.00076675 C58.48974539 -0.00329339 60.81716193 0.00054744 63.14466858 0.00613403 C63.84080765 0.0041098 64.53694672 0.00208557 65.25418091 0 C70.01282772 0.02126583 70.01282772 0.02126583 71.12709045 1.13552856 C71.22764159 3.99107437 71.26324589 6.82246879 71.25648499 9.67849731 C71.25911346 11.02229965 71.25911346 11.02229965 71.26179504 12.39324951 C71.26621492 15.36986194 71.26327509 18.34641548 71.25990295 21.32302856 C71.26057595 23.38186657 71.26154595 25.4407045 71.26280212 27.49954224 C71.26427928 31.82059483 71.26212397 36.1416268 71.25746155 40.462677 C71.25176425 46.01489402 71.25504316 51.56706271 71.26103401 57.11927795 C71.26463914 61.37247078 71.26350126 65.62565205 71.26090622 69.87884521 C71.26023682 71.92667649 71.26106583 73.9745088 71.26338577 76.02233887 C71.26591151 78.87910764 71.26207282 81.73579699 71.25648499 84.59255981 C71.25850922 85.44766144 71.26053345 86.30276306 71.26261902 87.18377686 C71.24135284 93.02126618 71.24135284 93.02126618 70.12709045 94.13552856 C67.7899472 94.23576411 65.4823472 94.27172059 63.14466858 94.2649231 C62.41461105 94.26667542 61.68455353 94.26842773 60.93237305 94.27023315 C58.50767167 94.27465156 56.08304263 94.27171373 53.65834045 94.26834106 C51.98064663 94.26901411 50.30295289 94.26998414 48.6252594 94.27124023 C45.10453872 94.27271719 41.58384336 94.27056273 38.06312561 94.26589966 C33.5399855 94.26020237 29.01690472 94.26348138 24.49376678 94.26947212 C21.0280665 94.2730778 17.56238039 94.27193912 14.09667969 94.26934433 C12.42843621 94.26867508 10.76019146 94.26950342 9.09194946 94.27182388 C6.76443552 94.27435052 4.43701898 94.27050969 2.10951233 94.2649231 C1.41337326 94.26694733 0.71723419 94.26897156 0 94.27105713 C-4.75864681 94.2497913 -4.75864681 94.2497913 -5.87290955 93.13552856 C-5.97346068 90.27998276 -6.00906498 87.44858833 -6.00230408 84.59255981 C-6.0040564 83.69669159 -6.00580872 82.80082336 -6.00761414 81.87780762 C-6.01203401 78.90119519 -6.00909419 75.92464165 -6.00572205 72.94802856 C-6.00639505 70.88919056 -6.00736504 68.83035263 -6.00862122 66.77151489 C-6.01009837 62.4504623 -6.00794306 58.12943033 -6.00328064 53.80838013 C-5.99758335 48.25616311 -6.00086225 42.70399442 -6.0068531 37.15177917 C-6.01045824 32.89858635 -6.00932035 28.64540508 -6.00672531 24.39221191 C-6.00605591 22.34438064 -6.00688492 20.29654833 -6.00920486 18.24871826 C-6.01173061 15.39194949 -6.00789191 12.53526014 -6.00230408 9.67849731 C-6.00432831 8.82339569 -6.00635254 7.96829407 -6.00843811 7.08728027 C-5.9827163 0.02673605 -5.9827163 0.02673605 0 0 Z M-1.87290955 4.13552856 C-1.87290955 32.51552856 -1.87290955 60.89552856 -1.87290955 90.13552856 C21.22709045 90.13552856 44.32709045 90.13552856 68.12709045 90.13552856 C68.12709045 61.75552856 68.12709045 33.37552856 68.12709045 4.13552856 C45.02709045 4.13552856 21.92709045 4.13552856 -1.87290955 4.13552856 Z " fill="#7F0710" transform="translate(18.872909545898438,2.864471435546875)"/>
<path d="M0 0 C5.13134625 0.51313463 9.74837792 2.05734987 14 5 C14.495 6.485 14.495 6.485 15 8 C9.25 11 9.25 11 7 11 C6.67 14.63 6.34 18.26 6 22 C4.618125 22.04125 3.23625 22.0825 1.8125 22.125 C-2.26488265 22.54482411 -2.75708411 22.72238184 -5.625 26 C-6.40875 26.99 -7.1925 27.98 -8 29 C-11.4375 30.1875 -11.4375 30.1875 -15 30 C-17.51544901 28.5878181 -18.96537646 27.13387347 -21 25 C-21 24.34 -21 23.68 -21 23 C-21.804375 22.731875 -22.60875 22.46375 -23.4375 22.1875 C-24.283125 21.795625 -25.12875 21.40375 -26 21 C-27.17663842 17.47008474 -26.54288737 16.02874577 -25.03515625 12.71875 C-23.4983216 10.16702454 -21.44044991 8.64895264 -19 7 C-15.125 9.625 -15.125 9.625 -14 13 C-11.49552484 14.21869929 -11.49552484 14.21869929 -9 15 C-4.14773953 10.32103454 -0.64577203 6.94204932 0 0 Z " fill="#4ED095" transform="translate(54,16)"/>
<path d="M0 0 C3.125 2 3.125 2 5 5 C5.77653117 9.29179595 5.4674097 12.29888546 3 16 C2.34 16 1.68 16 1 16 C0.773125 16.78375 0.54625 17.5675 0.3125 18.375 C-1 21 -1 21 -3.375 22.5 C-6 23 -6 23 -8.25 21.8125 C-10 20 -10 20 -11 17 C-11.99 16.34 -12.98 15.68 -14 15 C-15.21260877 11.36217368 -15.39544552 8.82264001 -15 5 C-11.27834158 -0.8305982 -6.39494527 -1.27898905 0 0 Z " fill="#F85A68" transform="translate(49,9)"/>
<path d="M0 0 C0.309375 0.639375 0.61875 1.27875 0.9375 1.9375 C1.8345163 3.93610821 1.8345163 3.93610821 3 5 C3.86656844 13.24906493 2.75738562 21.90738044 -2.5 28.5625 C-5 31 -5 31 -8 32 C-8.03867188 30.73542969 -8.03867188 30.73542969 -8.078125 29.4453125 C-8.16320312 27.80175781 -8.16320312 27.80175781 -8.25 26.125 C-8.29640625 25.03445312 -8.3428125 23.94390625 -8.390625 22.8203125 C-8.68846128 19.8667935 -8.68846128 19.8667935 -11.046875 18.6171875 C-11.69140625 18.41351563 -12.3359375 18.20984375 -13 18 C-11.83392573 8.88025493 -11.83392573 8.88025493 -8.75 5.625 C-7.8425 5.08875 -6.935 4.5525 -6 4 C-4.89259882 3.25478415 -3.78841527 2.5047646 -2.6875 1.75 C-1.800625 1.1725 -0.91375 0.595 0 0 Z " fill="#50CE94" transform="translate(75,31)"/>
<path d="M0 0 C2.52480693 2.52480693 2.55738633 4.13823034 3.125 7.625 C3.29257812 8.62789062 3.46015625 9.63078125 3.6328125 10.6640625 C3.75398438 11.43492188 3.87515625 12.20578125 4 13 C-0.44049334 15.22024667 -6.28333165 13.8816708 -11 13 C-16.38347449 10.5635137 -20.79831544 7.01133235 -24 2 C-24 1.34 -24 0.68 -24 0 C-15.87528465 -2.70823845 -8.16173549 -2.74315591 0 0 Z " fill="#4FCE95" transform="translate(53,54)"/>
<path d="M0 0 C14.19 0 28.38 0 43 0 C43 0.99 43 1.98 43 3 C28.81 3 14.62 3 0 3 C0 2.01 0 1.02 0 0 Z " fill="#FFEEA3" transform="translate(30,77)"/>
<path d="M0 0 C2.625 0.375 2.625 0.375 5 1 C5.625 3.375 5.625 3.375 6 6 C5.34 6.66 4.68 7.32 4 8 C1.375 7.625 1.375 7.625 -1 7 C-1.625 4.625 -1.625 4.625 -2 2 C-1.34 1.34 -0.68 0.68 0 0 Z " fill="#D8304C" transform="translate(42,14)"/>
<path d="M0 0 C0.99 0.33 1.98 0.66 3 1 C2.67 4.3 2.34 7.6 2 11 C1.34 10.67 0.68 10.34 0 10 C0 6.7 0 3.4 0 0 Z " fill="#3A8FDF" transform="translate(26,36)"/>
</svg>
