<svg version="1.1" id="Layer_1" xmlns="http://www.w3.org/2000/svg" xmlns:xlink="http://www.w3.org/1999/xlink" x="0px" y="0px"
	 width="100%" viewBox="0 0 512 512" enable-background="new 0 0 512 512" xml:space="preserve">
<path fill="#000000" opacity="1.000000" stroke="none" 
	d="
M513.000000,172.000000 
	C513.000000,285.972290 513.000000,399.444580 513.000000,512.958435 
	C342.402710,512.958435 171.805389,512.958435 1.104040,512.958435 
	C1.104040,342.444397 1.104040,171.888733 1.104040,1.166524 
	C171.666534,1.166524 342.333252,1.166524 513.000000,1.166524 
	C513.000000,57.861240 513.000000,114.680618 513.000000,172.000000 
M397.500000,503.000000 
	C405.498688,502.999939 413.497375,503.008087 421.496063,502.998047 
	C438.556244,502.976654 451.987946,489.520203 451.989929,472.313202 
	C452.006439,328.838074 451.936401,185.362869 452.086456,41.887890 
	C452.103424,25.641819 437.626129,10.832130 421.196838,10.869834 
	C311.716400,11.121090 202.234833,11.118249 92.754364,10.872580 
	C76.373383,10.835822 61.892696,25.645981 61.910385,41.936657 
	C62.066013,185.244980 62.077217,328.553650 61.895504,471.861938 
	C61.874687,488.276672 76.387306,503.196991 93.053024,503.148071 
	C194.201279,502.850952 295.350861,502.999969 397.500000,503.000000 
z"/>
<path fill="#7C030C" opacity="1.000000" stroke="none" 
	d="
M397.000000,503.000000 
	C295.350861,502.999969 194.201279,502.850952 93.053024,503.148071 
	C76.387306,503.196991 61.874687,488.276672 61.895504,471.861938 
	C62.077217,328.553650 62.066013,185.244980 61.910385,41.936657 
	C61.892696,25.645981 76.373383,10.835822 92.754364,10.872580 
	C202.234833,11.118249 311.716400,11.121090 421.196838,10.869834 
	C437.626129,10.832130 452.103424,25.641819 452.086456,41.887890 
	C451.936401,185.362869 452.006439,328.838074 451.989929,472.313202 
	C451.987946,489.520203 438.556244,502.976654 421.496063,502.998047 
	C413.497375,503.008087 405.498688,502.999939 397.000000,503.000000 
M89.213600,33.388603 
	C83.271675,36.173893 83.068733,41.766972 83.065773,47.031879 
	C82.986900,187.008057 82.994759,326.984314 83.018661,466.960541 
	C83.020592,478.262512 86.821091,481.996918 97.944931,481.997711 
	C160.934235,482.002075 223.923538,482.000244 286.912842,481.999878 
	C330.572083,481.999634 374.231354,482.009644 417.890594,481.987000 
	C425.735321,481.982910 428.763885,479.603882 430.413147,472.048157 
	C430.902893,469.804688 430.976868,467.436218 430.977295,465.125000 
	C431.002289,326.315247 430.999817,187.505463 430.996979,48.695702 
	C430.996948,47.196308 431.070770,45.685207 430.917480,44.199444 
	C430.017639,35.476158 426.305756,32.012436 417.711334,32.011307 
	C310.562866,31.997248 203.414383,31.996162 96.265938,32.045551 
	C94.160622,32.046524 92.055611,32.696724 89.213600,33.388603 
z"/>
<path fill="#B94047" opacity="1.000000" stroke="none" 
	d="
M89.582031,33.216316 
	C92.055611,32.696724 94.160622,32.046524 96.265938,32.045551 
	C203.414383,31.996162 310.562866,31.997248 417.711334,32.011307 
	C426.305756,32.012436 430.017639,35.476158 430.917480,44.199444 
	C431.070770,45.685207 430.996948,47.196308 430.996979,48.695702 
	C430.999817,187.505463 431.002289,326.315247 430.977295,465.125000 
	C430.976868,467.436218 430.902893,469.804688 430.413147,472.048157 
	C428.763885,479.603882 425.735321,481.982910 417.890594,481.987000 
	C374.231354,482.009644 330.572083,481.999634 286.912842,481.999878 
	C223.923538,482.000244 160.934235,482.002075 97.944931,481.997711 
	C86.821091,481.996918 83.020592,478.262512 83.018661,466.960541 
	C82.994759,326.984314 82.986900,187.008057 83.065773,47.031879 
	C83.068733,41.766972 83.271675,36.173893 89.582031,33.216316 
M177.829697,115.668251 
	C172.014145,122.157234 165.656784,128.246002 160.502747,135.223633 
	C151.482071,147.435989 144.807312,160.909027 141.963699,176.832275 
	C137.419205,190.209549 138.160568,204.055008 139.500977,217.659851 
	C140.959503,232.463562 146.156540,246.394638 153.566376,260.032104 
	C155.682632,263.349640 157.703918,266.732452 159.931519,269.973450 
	C169.741669,284.246368 182.377518,295.579132 197.348709,304.058319 
	C212.580643,312.685181 229.015823,318.417664 246.650970,318.821381 
	C257.184570,319.062469 267.758972,317.520538 279.059937,316.743591 
	C279.843811,316.500031 280.615601,316.204071 281.413300,316.020630 
	C297.101013,312.413513 311.484619,306.026611 324.778046,295.687805 
	C329.168182,291.947510 333.970093,288.588928 337.863953,284.388580 
	C346.348877,275.235931 353.814026,265.433594 359.272949,253.923035 
	C365.283691,241.248947 369.584717,228.185898 370.824646,214.401001 
	C372.676331,193.816177 369.671143,173.780807 360.669037,154.196976 
	C353.713074,140.106201 344.917786,127.377815 332.750031,116.313126 
	C324.348846,110.610390 316.347321,104.165352 307.453827,99.377014 
	C293.738983,91.992805 278.923676,87.526634 262.915253,86.285599 
	C260.303070,80.410721 258.522369,73.957993 254.918655,68.772148 
	C245.140579,54.701275 224.235916,46.623627 205.721817,53.049145 
	C189.863052,58.553104 179.835434,69.230591 175.983475,85.603294 
	C173.621216,95.644051 175.339020,105.406311 177.829697,115.668251 
M140.547470,389.999969 
	C137.882858,390.002289 135.210815,389.877838 132.555161,390.033173 
	C126.910889,390.363251 122.696602,396.157440 123.892883,401.782227 
	C125.420258,408.963745 128.076462,410.996368 136.053619,410.996857 
	C216.328354,411.001740 296.603088,410.999908 376.877838,410.999268 
	C377.877075,410.999268 378.893280,411.107483 379.872711,410.965851 
	C384.625336,410.278503 388.808258,408.886658 390.007843,403.340179 
	C391.737335,395.343536 387.174438,390.007904 378.360535,390.006683 
	C299.418152,389.995605 220.475769,390.000092 140.547470,389.999969 
z"/>
<path fill="#2594EF" opacity="1.000000" stroke="none" 
	d="
M324.166626,296.002655 
	C311.484619,306.026611 297.101013,312.413513 281.413300,316.020630 
	C280.615601,316.204071 279.843811,316.500031 278.621765,316.361633 
	C273.117096,297.938416 268.199799,279.852051 262.781250,261.917175 
	C262.156342,259.848846 258.943085,257.661499 256.586548,257.167664 
	C243.922974,254.513901 231.190140,252.122269 218.401794,250.156952 
	C210.269608,248.907181 202.166031,246.735916 193.720901,249.083572 
	C180.292511,252.816574 166.733124,256.078400 153.229141,259.539520 
	C146.156540,246.394638 140.959503,232.463562 139.500977,217.659851 
	C138.160568,204.055008 137.419205,190.209549 142.358093,176.618073 
	C145.446259,178.034286 148.019058,179.922516 150.853775,181.252533 
	C167.099319,188.874863 178.968689,201.751236 191.199875,214.278610 
	C198.068207,221.313263 198.470261,222.396057 209.007538,218.903946 
	C215.775879,216.660858 222.582687,214.477890 229.173935,211.782959 
	C231.944748,210.650070 234.790070,208.710648 236.576767,206.359222 
	C240.681564,200.957001 244.286270,195.155731 247.835464,189.358185 
	C249.670715,186.360306 251.822632,184.851395 255.474747,184.940018 
	C263.631287,185.137955 271.797852,185.094055 279.957031,184.954590 
	C286.595764,184.841141 289.798798,182.195206 290.911835,176.346207 
	C292.989594,165.427429 294.845337,154.459290 297.269501,143.618149 
	C297.936859,140.633514 299.626556,137.056595 301.998291,135.433029 
	C308.269073,131.140457 315.210236,127.837593 321.805359,124.004471 
	C325.635040,121.778641 329.311951,119.289970 333.057617,116.919586 
	C344.917786,127.377815 353.713074,140.106201 360.411194,154.602463 
	C345.482483,164.660233 330.796722,174.290070 316.151245,183.980774 
	C312.548004,186.364990 309.425049,188.941055 308.406738,193.730453 
	C306.548309,202.470734 304.045471,211.074051 301.808960,219.733856 
	C298.869568,231.115158 297.440308,235.713318 311.760620,241.184753 
	C315.314819,242.542709 318.622650,244.443665 319.074982,249.512787 
	C320.460266,265.037231 322.426392,280.509888 324.166626,296.002655 
z"/>
<path fill="#4ED195" opacity="1.000000" stroke="none" 
	d="
M332.903809,116.616356 
	C329.311951,119.289970 325.635040,121.778641 321.805359,124.004471 
	C315.210236,127.837593 308.269073,131.140457 301.998291,135.433029 
	C299.626556,137.056595 297.936859,140.633514 297.269501,143.618149 
	C294.845337,154.459290 292.989594,165.427429 290.911835,176.346207 
	C289.798798,182.195206 286.595764,184.841141 279.957031,184.954590 
	C271.797852,185.094055 263.631287,185.137955 255.474747,184.940018 
	C251.822632,184.851395 249.670715,186.360306 247.835464,189.358185 
	C244.286270,195.155731 240.681564,200.957001 236.576767,206.359222 
	C234.790070,208.710648 231.944748,210.650070 229.173935,211.782959 
	C222.582687,214.477890 215.775879,216.660858 209.007538,218.903946 
	C198.470261,222.396057 198.068207,221.313263 191.199875,214.278610 
	C178.968689,201.751236 167.099319,188.874863 150.853775,181.252533 
	C148.019058,179.922516 145.446259,178.034286 142.459122,176.244598 
	C144.807312,160.909027 151.482071,147.435989 160.502747,135.223633 
	C165.656784,128.246002 172.014145,122.157234 178.289948,115.525650 
	C180.082687,117.644218 181.088257,120.196770 182.801376,122.118645 
	C192.881516,133.427094 203.054703,144.655182 213.358551,155.760056 
	C216.566925,159.217834 221.729614,159.213898 225.176208,155.619080 
	C234.516464,145.877197 243.659271,135.943542 252.769562,125.984566 
	C258.126007,120.129150 261.616943,113.106377 262.728729,105.344246 
	C263.588928,99.338417 263.060333,93.133659 263.149170,87.017342 
	C278.923676,87.526634 293.738983,91.992805 307.453827,99.377014 
	C316.347321,104.165352 324.348846,110.610390 332.903809,116.616356 
z"/>
<path fill="#4ED195" opacity="1.000000" stroke="none" 
	d="
M324.472351,295.845215 
	C322.426392,280.509888 320.460266,265.037231 319.074982,249.512787 
	C318.622650,244.443665 315.314819,242.542709 311.760620,241.184753 
	C297.440308,235.713318 298.869568,231.115158 301.808960,219.733856 
	C304.045471,211.074051 306.548309,202.470734 308.406738,193.730453 
	C309.425049,188.941055 312.548004,186.364990 316.151245,183.980774 
	C330.796722,174.290070 345.482483,164.660233 360.494781,154.932495 
	C369.671143,173.780807 372.676331,193.816177 370.824646,214.401001 
	C369.584717,228.185898 365.283691,241.248947 359.272949,253.923035 
	C353.814026,265.433594 346.348877,275.235931 337.863953,284.388580 
	C333.970093,288.588928 329.168182,291.947510 324.472351,295.845215 
z"/>
<path fill="#4ED095" opacity="1.000000" stroke="none" 
	d="
M153.397766,259.785828 
	C166.733124,256.078400 180.292511,252.816574 193.720901,249.083572 
	C202.166031,246.735916 210.269608,248.907181 218.401794,250.156952 
	C231.190140,252.122269 243.922974,254.513901 256.586548,257.167664 
	C258.943085,257.661499 262.156342,259.848846 262.781250,261.917175 
	C268.199799,279.852051 273.117096,297.938416 278.249329,316.379883 
	C267.758972,317.520538 257.184570,319.062469 246.650970,318.821381 
	C229.015823,318.417664 212.580643,312.685181 197.348709,304.058319 
	C182.377518,295.579132 169.741669,284.246368 159.931519,269.973450 
	C157.703918,266.732452 155.682632,263.349640 153.397766,259.785828 
z"/>
<path fill="#FB5968" opacity="1.000000" stroke="none" 
	d="
M263.032227,86.651474 
	C263.060333,93.133659 263.588928,99.338417 262.728729,105.344246 
	C261.616943,113.106377 258.126007,120.129150 252.769562,125.984566 
	C243.659271,135.943542 234.516464,145.877197 225.176208,155.619080 
	C221.729614,159.213898 216.566925,159.217834 213.358551,155.760056 
	C203.054703,144.655182 192.881516,133.427094 182.801376,122.118645 
	C181.088257,120.196770 180.082687,117.644218 178.451248,115.230255 
	C175.339020,105.406311 173.621216,95.644051 175.983475,85.603294 
	C179.835434,69.230591 189.863052,58.553104 205.721817,53.049145 
	C224.235916,46.623627 245.140579,54.701275 254.918655,68.772148 
	C258.522369,73.957993 260.303070,80.410721 263.032227,86.651474 
M201.422699,97.859848 
	C202.392609,100.314613 203.095169,102.921059 204.384979,105.194305 
	C207.613708,110.884796 216.163391,114.914360 221.741730,113.658073 
	C230.019302,111.793900 236.515945,104.829987 236.971619,97.332787 
	C237.617264,86.710022 230.176544,78.181412 220.111740,78.007912 
	C208.997452,77.816322 201.040024,85.858078 201.422699,97.859848 
z"/>
<path fill="#FFEEA3" opacity="1.000000" stroke="none" 
	d="
M141.040436,390.000000 
	C220.475769,390.000092 299.418152,389.995605 378.360535,390.006683 
	C387.174438,390.007904 391.737335,395.343536 390.007843,403.340179 
	C388.808258,408.886658 384.625336,410.278503 379.872711,410.965851 
	C378.893280,411.107483 377.877075,410.999268 376.877838,410.999268 
	C296.603088,410.999908 216.328354,411.001740 136.053619,410.996857 
	C128.076462,410.996368 125.420258,408.963745 123.892883,401.782227 
	C122.696602,396.157440 126.910889,390.363251 132.555161,390.033173 
	C135.210815,389.877838 137.882858,390.002289 141.040436,390.000000 
z"/>
<path fill="#D8304C" opacity="1.000000" stroke="none" 
	d="
M201.340515,97.460480 
	C201.040024,85.858078 208.997452,77.816322 220.111740,78.007912 
	C230.176544,78.181412 237.617264,86.710022 236.971619,97.332787 
	C236.515945,104.829987 230.019302,111.793900 221.741730,113.658073 
	C216.163391,114.914360 207.613708,110.884796 204.384979,105.194305 
	C203.095169,102.921059 202.392609,100.314613 201.340515,97.460480 
z"/>
</svg>